<svg width="320" height="425" viewBox="0 0 320 425" fill="none" xmlns="http://www.w3.org/2000/svg">
<g clip-path="url(#clip0)">
<path d="M19.9283 187.879C15.2047 154.932 5.25866 120.215 18.5825 99.5701C31.7899 78.7868 68.4133 71.9537 100.367 64.3066C132.205 56.5207 159.372 47.9208 190.906 46.3052C222.293 44.8123 258.162 50.4425 277.653 70.9987C297.115 91.8164 300.198 127.56 299.955 162.309C299.712 197.058 295.88 230.796 277.213 251.902C258.545 273.008 224.926 281.342 193.399 294.546C161.989 307.889 136.615 305.345 108.561 304.278C80.5067 303.211 57.9734 294.55 45.0322 268.735C32.2074 243.058 24.5354 220.688 19.9283 187.879Z" fill="#2F80ED"/>
</g>
<defs>
<clipPath id="clip0">
<rect width="340.453" height="381.863" fill="white" transform="translate(105.839 424.259) rotate(-130)"/>
</clipPath>
</defs>
</svg>
