<svg width="1097" height="1000" viewBox="0 0 1097 1000" fill="none" xmlns="http://www.w3.org/2000/svg">
<g clip-path="url(#clip0)">
<path d="M326.053 450.589C314.491 369.943 290.146 284.965 322.759 234.433C355.087 183.561 444.731 166.836 522.945 148.118C600.874 129.06 667.373 108.01 744.558 104.055C821.385 100.401 909.183 114.182 956.891 164.498C1004.53 215.454 1012.07 302.944 1011.48 388C1010.88 473.056 1001.51 555.637 955.813 607.298C910.12 658.959 827.83 679.36 750.661 711.68C673.777 744.339 611.668 738.113 543 735.5C474.332 732.887 419.176 711.689 387.5 648.5C356.109 585.651 337.33 530.896 326.053 450.589Z" fill="#2F80ED"/>
</g>
<defs>
<clipPath id="clip0">
<rect width="833.333" height="934.692" fill="white" transform="translate(536.337 1029.18) rotate(-130)"/>
</clipPath>
</defs>
</svg>
