<svg width="947" height="909" viewBox="0 0 947 909" fill="none" xmlns="http://www.w3.org/2000/svg">
<path d="M176.053 450.589C164.49 369.943 140.145 284.965 172.758 234.433C205.086 183.561 294.73 166.836 372.944 148.118C450.873 129.06 517.373 108.01 594.557 104.055C671.384 100.401 759.182 114.182 806.891 164.498C854.527 215.454 862.074 302.944 861.479 388C860.885 473.056 851.505 555.637 805.813 607.298C760.12 658.959 677.829 679.36 600.661 711.68C523.777 744.339 461.668 738.113 393 735.5C324.331 732.887 269.176 711.689 237.5 648.5C206.108 585.651 187.329 530.896 176.053 450.589Z" fill="#2F80ED"/>
</svg>
