<svg width="24" height="24" viewBox="0 0 24 24" fill="none" xmlns="http://www.w3.org/2000/svg">
<g clip-path="url(#clip0)">
<path d="M23.0139 5.00648H4.24886L3.96992 1.89904C3.9243 1.39087 3.49841 1.0015 2.98823 1.0015H0.98564C0.441285 1.0015 0 1.44278 0 1.98714C0 2.53149 0.441285 2.97277 0.98564 2.97277H2.08712C2.68906 9.67897 1.13335 -7.65407 3.22074 15.6025C3.30119 16.5128 3.79302 17.5005 4.6403 18.1717C3.1127 20.1225 4.50846 22.9985 6.99335 22.9985C9.05578 22.9985 10.5104 20.9415 9.80317 18.9933H15.1977C14.4913 20.939 15.9429 22.9985 18.0075 22.9985C19.6553 22.9985 20.9958 21.658 20.9958 20.0103C20.9958 18.3626 19.6553 17.022 18.0075 17.022H7.00001C6.2513 17.022 5.59886 16.5703 5.31725 15.9122L21.0691 14.9865C21.4991 14.9612 21.8629 14.6595 21.9675 14.2416L23.9702 6.23116C24.1255 5.61002 23.6553 5.00648 23.0139 5.00648ZM6.99335 21.0272C6.43266 21.0272 5.97645 20.571 5.97645 20.0103C5.97645 19.4495 6.43266 18.9933 6.99335 18.9933C7.55408 18.9933 8.01029 19.4495 8.01029 20.0103C8.01029 20.571 7.55408 21.0272 6.99335 21.0272ZM18.0075 21.0272C17.4468 21.0272 16.9906 20.571 16.9906 20.0103C16.9906 19.4495 17.4468 18.9933 18.0075 18.9933C18.5682 18.9933 19.0244 19.4495 19.0244 20.0103C19.0244 20.571 18.5682 21.0272 18.0075 21.0272ZM20.2306 13.0611L5.05192 13.9531L4.4258 6.97771H21.7516L20.2306 13.0611Z" fill="#000000"/>
</g>
<defs>
<clipPath id="clip0">
<rect width="24" height="24" fill="white"/>
</clipPath>
</defs>
</svg>
