<svg width="128" height="128" viewBox="0 0 128 128" fill="none" xmlns="http://www.w3.org/2000/svg">
<path fill-rule="evenodd" clip-rule="evenodd" d="M63.9998 10.6667C34.5598 10.6667 10.6665 34.56 10.6665 64C10.6665 93.44 34.5598 117.333 63.9998 117.333C93.4398 117.333 117.333 93.44 117.333 64C117.333 34.56 93.4398 10.6667 63.9998 10.6667ZM63.9998 106.667C40.4798 106.667 21.3332 87.52 21.3332 64C21.3332 40.48 40.4798 21.3333 63.9998 21.3333C87.5198 21.3333 106.666 40.48 106.666 64C106.666 87.52 87.5198 106.667 63.9998 106.667ZM53.3331 75.5733L84.6931 44.2133C86.7731 42.1333 90.1864 42.1333 92.2664 44.2133C94.3464 46.2933 94.3464 49.6533 92.2664 51.7333L57.1198 86.88C55.0398 88.96 51.6798 88.96 49.5998 86.88L35.7864 73.0667C33.7064 70.9867 33.7064 67.6267 35.7864 65.5467C36.7829 64.548 38.1357 63.9867 39.5464 63.9867C40.9572 63.9867 42.31 64.548 43.3064 65.5467L53.3331 75.5733Z" fill="#2F80ED"/>
</svg>
