<svg width="24" height="24" viewBox="0 0 24 24" fill="none" xmlns="http://www.w3.org/2000/svg">
<g clip-path="url(#clip0)">
<path d="M12 23.999C18.6274 23.999 24 18.6264 24 11.999C24 5.37161 18.6274 -0.000976562 12 -0.000976562C5.37258 -0.000976562 0 5.37161 0 11.999C0 18.6264 5.37258 23.999 12 23.999Z" fill="#2F80ED"/>
<path d="M4.17784 12.5378C4.13527 14.6024 5.55736 16.5728 7.51358 17.2154C9.35621 17.8344 11.6217 17.3713 12.8479 15.7933C13.7431 14.6876 13.9465 13.2135 13.8496 11.8364C12.2716 11.8222 10.6936 11.8269 9.11791 11.8293C9.11534 12.3915 9.11791 12.9515 9.12026 13.5136C10.0651 13.5397 11.0102 13.5278 11.955 13.5468C11.7165 14.3642 11.1732 15.1248 10.3485 15.42C8.7564 16.1216 6.72488 15.205 6.2239 13.5348C5.61918 11.9354 6.60916 10.0053 8.24365 9.54002C9.25717 9.18343 10.3013 9.58494 11.1685 10.1118C11.6078 9.70067 12.019 9.2613 12.4228 8.81722C11.4376 7.9928 10.1714 7.48733 8.86977 7.59835C6.31589 7.62872 4.08094 9.98646 4.17784 12.5378Z" fill="#2F80ED"/>
<path d="M16.9207 10.4108C16.916 10.8809 16.9111 11.3535 16.9088 11.8234C16.4362 11.8281 15.9663 11.8305 15.4961 11.8328C15.4961 12.303 15.4961 12.7706 15.4961 13.2408C15.9663 13.2432 16.4388 13.2455 16.9088 13.2504C16.9135 13.7206 16.9135 14.1906 16.9182 14.6631C17.386 14.6631 17.8562 14.6608 18.3261 14.6631C18.3287 14.1906 18.3308 13.7206 18.3358 13.2481C18.8057 13.2457 19.2783 13.2434 19.7484 13.241C19.7484 12.7708 19.7484 12.3032 19.7484 11.8331C19.2785 11.8307 18.8059 11.8284 18.3358 11.8237C18.3332 11.3535 18.3287 10.8809 18.3261 10.411C17.8562 10.4108 17.3884 10.4108 16.9207 10.4108Z" fill="#2F80ED"/>
<path d="M4.17784 12.537C4.08094 9.98569 6.31567 7.62796 8.86956 7.59737C10.1712 7.48635 11.4376 7.99183 12.4226 8.81624C12.0185 9.26053 11.6074 9.69969 11.1683 10.1108C10.3011 9.58397 9.25695 9.18245 8.24344 9.53904C6.60873 10.0045 5.61875 11.9346 6.22369 13.5338C6.72467 15.2041 8.75619 16.1207 10.3483 15.419C11.1727 15.1238 11.7163 14.3632 11.9548 13.5458C11.01 13.527 10.0649 13.5388 9.12005 13.5127C9.1177 12.9505 9.11535 12.3905 9.1177 11.8283C10.6934 11.826 12.2714 11.8213 13.8494 11.8354C13.9463 13.2128 13.7431 14.6868 12.8477 15.7923C11.6215 17.3703 9.35621 17.8335 7.51336 17.2144C5.55757 16.572 4.13528 14.6017 4.17784 12.537Z" fill="white"/>
<path d="M16.9207 10.4108C17.3886 10.4108 17.8562 10.4108 18.3261 10.4108C18.3287 10.8809 18.3332 11.3535 18.3358 11.8234C18.8057 11.8281 19.2783 11.8305 19.7484 11.8328C19.7484 12.303 19.7484 12.7706 19.7484 13.2408C19.2785 13.2432 18.8059 13.2455 18.3358 13.2479C18.3311 13.7204 18.3287 14.1904 18.3261 14.6629C17.8562 14.6605 17.3858 14.6629 16.9182 14.6629C16.9137 14.1904 16.9137 13.7204 16.9088 13.2502C16.4388 13.2453 15.9663 13.2432 15.4961 13.2406C15.4961 12.7704 15.4961 12.3028 15.4961 11.8326C15.9663 11.8303 16.4364 11.8279 16.9088 11.8232C16.9111 11.3535 16.9158 10.8809 16.9207 10.4108Z" fill="white"/>
</g>
<defs>
<clipPath id="clip0">
<rect width="24" height="24" fill="white"/>
</clipPath>
</defs>
</svg>
