<svg width="18" height="18" viewBox="0 0 18 18" fill="none" xmlns="http://www.w3.org/2000/svg">
<path d="M9 4.5C9.825 4.5 10.5 5.175 10.5 6C10.5 6.825 9.825 7.5 9 7.5C8.175 7.5 7.5 6.825 7.5 6C7.5 5.175 8.175 4.5 9 4.5ZM9 11.25C11.025 11.25 13.35 12.2175 13.5 12.75V13.5H4.5V12.7575C4.65 12.2175 6.975 11.25 9 11.25V11.25ZM9 3C7.3425 3 6 4.3425 6 6C6 7.6575 7.3425 9 9 9C10.6575 9 12 7.6575 12 6C12 4.3425 10.6575 3 9 3V3ZM9 9.75C6.9975 9.75 3 10.755 3 12.75V15H15V12.75C15 10.755 11.0025 9.75 9 9.75V9.75Z" fill="#6D7D8B"/>
</svg>
