<svg width="280" height="80" viewBox="0 0 280 80" fill="none" xmlns="http://www.w3.org/2000/svg">
<rect width="280" height="80" fill="#DAE3EA"/>
<path fill-rule="evenodd" clip-rule="evenodd" d="M155.75 27.75V52.25C155.75 54.175 154.175 55.75 152.25 55.75H127.75C125.825 55.75 124.25 54.175 124.25 52.25V27.75C124.25 25.825 125.825 24.25 127.75 24.25H152.25C154.175 24.25 155.75 25.825 155.75 27.75ZM138.25 47.8925L134.575 43.465C134.208 43.0275 133.543 43.045 133.21 43.5L128.853 49.1C128.398 49.6775 128.8 50.5175 129.535 50.5175H150.518C151.235 50.5175 151.655 49.695 151.218 49.1175L145.075 40.9275C144.725 40.455 144.025 40.455 143.675 40.91L138.25 47.8925Z" fill="#94A3B1"/>
</svg>
