<svg width="18" height="18" viewBox="0 0 18 18" fill="none" xmlns="http://www.w3.org/2000/svg">
<path fill-rule="evenodd" clip-rule="evenodd" d="M3.75 6.94876C3.75 4.04626 6.0975 1.69876 9 1.69876C11.9025 1.69876 14.25 4.04626 14.25 6.94876C14.25 10.0763 10.935 14.3888 9.5775 16.0313C9.2775 16.3913 8.73 16.3913 8.43 16.0313C7.065 14.3888 3.75 10.0763 3.75 6.94876ZM7.125 6.94876C7.125 7.98376 7.965 8.82376 9 8.82376C10.035 8.82376 10.875 7.98376 10.875 6.94876C10.875 5.91376 10.035 5.07376 9 5.07376C7.965 5.07376 7.125 5.91376 7.125 6.94876Z" fill="#ED455D"/>
</svg>
