<svg width="18" height="18" viewBox="0 0 18 18" fill="none" xmlns="http://www.w3.org/2000/svg">
<path d="M9.00001 2.25C8.58751 2.25 8.25001 2.5875 8.25001 3V9C8.25001 9.4125 8.58751 9.75 9.00001 9.75C9.41251 9.75 9.75001 9.4125 9.75001 9V3C9.75001 2.5875 9.41251 2.25 9.00001 2.25ZM12.855 4.395C12.5625 4.6875 12.57 5.145 12.8475 5.4375C13.695 6.3375 14.22 7.5375 14.25 8.865C14.3175 11.7375 11.94 14.2125 9.06751 14.2425C6.13501 14.2875 3.75001 11.925 3.75001 9C3.75001 7.62 4.28251 6.3675 5.15251 5.43C5.43001 5.1375 5.43001 4.68 5.14501 4.395C4.84501 4.095 4.35751 4.1025 4.07251 4.41C2.98501 5.565 2.30251 7.1025 2.25001 8.805C2.14501 12.465 5.12251 15.63 8.78251 15.7425C12.6075 15.8625 15.75 12.795 15.75 8.9925C15.75 7.215 15.06 5.61 13.935 4.41C13.65 4.1025 13.155 4.095 12.855 4.395Z" fill="#6D7D8B"/>
</svg>
