<svg width="18" height="18" viewBox="0 0 18 18" fill="none" xmlns="http://www.w3.org/2000/svg">
<path d="M7.125 4.875V7.125H4.875V4.875H7.125ZM8.25 3.75H3.75V8.25H8.25V3.75ZM7.125 10.875V13.125H4.875V10.875H7.125ZM8.25 9.75H3.75V14.25H8.25V9.75ZM13.125 4.875V7.125H10.875V4.875H13.125ZM14.25 3.75H9.75V8.25H14.25V3.75ZM9.75 9.75H10.875V10.875H9.75V9.75ZM10.875 10.875H12V12H10.875V10.875ZM12 9.75H13.125V10.875H12V9.75ZM9.75 12H10.875V13.125H9.75V12ZM10.875 13.125H12V14.25H10.875V13.125ZM12 12H13.125V13.125H12V12ZM13.125 10.875H14.25V12H13.125V10.875ZM13.125 13.125H14.25V14.25H13.125V13.125ZM15.75 5.25C15.3375 5.25 15 4.9125 15 4.5V3H13.5C13.0875 3 12.75 2.6625 12.75 2.25C12.75 1.8375 13.0875 1.5 13.5 1.5H15.75C16.1625 1.5 16.5 1.8375 16.5 2.25V4.5C16.5 4.9125 16.1625 5.25 15.75 5.25ZM16.5 15.75V13.5C16.5 13.0875 16.1625 12.75 15.75 12.75C15.3375 12.75 15 13.0875 15 13.5V15H13.5C13.0875 15 12.75 15.3375 12.75 15.75C12.75 16.1625 13.0875 16.5 13.5 16.5H15.75C16.1625 16.5 16.5 16.1625 16.5 15.75ZM2.25 16.5H4.5C4.9125 16.5 5.25 16.1625 5.25 15.75C5.25 15.3375 4.9125 15 4.5 15H3V13.5C3 13.0875 2.6625 12.75 2.25 12.75C1.8375 12.75 1.5 13.0875 1.5 13.5V15.75C1.5 16.1625 1.8375 16.5 2.25 16.5ZM1.5 2.25V4.5C1.5 4.9125 1.8375 5.25 2.25 5.25C2.6625 5.25 3 4.9125 3 4.5V3H4.5C4.9125 3 5.25 2.6625 5.25 2.25C5.25 1.8375 4.9125 1.5 4.5 1.5H2.25C1.8375 1.5 1.5 1.8375 1.5 2.25Z" fill="#25313C"/>
</svg>
