<svg width="21" height="22" viewBox="0 0 21 22" fill="none" xmlns="http://www.w3.org/2000/svg">
<path fill-rule="evenodd" clip-rule="evenodd" d="M13.2883 13.0881H13.9796L17.6896 16.8156C18.0483 17.1744 18.0483 17.7606 17.6896 18.1194C17.3308 18.4781 16.7446 18.4781 16.3858 18.1194L12.6671 14.4006V13.7094L12.4308 13.4644C11.2058 14.5144 9.53455 15.0569 7.7583 14.7594C5.3258 14.3481 3.3833 12.3181 3.0858 9.86815C2.6308 6.1669 5.7458 3.0519 9.44705 3.5069C11.8971 3.8044 13.9271 5.7469 14.3383 8.1794C14.6358 9.95565 14.0933 11.6269 13.0433 12.8519L13.2883 13.0881ZM4.79207 9.15065C4.79207 11.3294 6.55082 13.0881 8.72957 13.0881C10.9083 13.0881 12.6671 11.3294 12.6671 9.15065C12.6671 6.9719 10.9083 5.21315 8.72957 5.21315C6.55082 5.21315 4.79207 6.9719 4.79207 9.15065Z" fill="#6D7D8B"/>
</svg>
